<svg xmlns="http://www.w3.org/2000/svg" width="713" height="521" viewBox="0 0 713 521" fill="none"><path d="M182.345 157.179V157.351C182.345 158.816 182.173 160.367 181.914 162.005C181.742 163.125 181.569 164.245 181.311 165.365C180.966 167.089 180.449 168.898 179.931 170.622C177.345 179.498 173.551 187.77 173.551 187.77H156.136C156.136 187.77 156.308 187.167 156.394 186.047C156.739 183.375 156.912 177.602 154.756 170.708C154.584 170.191 154.412 169.588 154.239 168.985C152.86 164.159 151.394 157.868 150.704 152.095C150.015 145.976 150.273 140.461 152.601 138.135C154.843 135.894 157.257 132.706 159.757 130.638C162.516 128.311 165.361 127.449 168.292 130.552C171.482 133.998 175.103 137.79 177.862 142.53C179.931 146.063 181.483 150.113 182.087 154.938C182.259 155.714 182.345 156.403 182.345 157.179Z" fill="#407C13"></path><path d="M433.921 271.616C433.49 271.616 433.145 271.358 433.059 270.927C432.973 270.496 433.318 269.979 433.749 269.893C433.749 269.893 435.128 269.634 437.542 269.117C437.973 269.031 438.491 269.29 438.577 269.807C438.663 270.237 438.405 270.754 437.887 270.841C435.473 271.358 434.094 271.616 434.008 271.616C434.008 271.616 434.008 271.616 433.921 271.616Z" fill="#C65F97"></path><path d="M445.129 269.117C444.784 269.117 444.353 268.859 444.267 268.428C444.181 267.997 444.439 267.48 444.871 267.394C447.285 266.791 449.699 266.101 452.199 265.412C452.63 265.239 453.147 265.584 453.233 266.015C453.406 266.446 453.061 266.963 452.63 267.049C450.13 267.738 447.716 268.428 445.302 269.031C445.302 269.117 445.215 269.117 445.129 269.117ZM459.7 264.981C459.355 264.981 459.01 264.722 458.837 264.378C458.665 263.947 458.924 263.43 459.355 263.257C461.769 262.482 464.183 261.706 466.511 260.845C466.942 260.672 467.459 260.931 467.631 261.362C467.804 261.793 467.545 262.31 467.114 262.482C464.7 263.344 462.286 264.119 459.872 264.895C459.958 264.981 459.872 264.981 459.7 264.981ZM474.097 259.897C473.753 259.897 473.408 259.724 473.322 259.38C473.149 258.949 473.408 258.432 473.839 258.259C476.167 257.312 478.581 256.364 480.822 255.416C481.253 255.243 481.771 255.416 481.943 255.847C482.115 256.278 481.943 256.795 481.512 256.967C479.184 257.915 476.856 258.949 474.442 259.811C474.27 259.897 474.184 259.897 474.097 259.897ZM488.064 254.037C487.719 254.037 487.461 253.865 487.288 253.52C487.116 253.089 487.288 252.572 487.719 252.4C490.047 251.366 492.289 250.245 494.53 249.125C494.962 248.953 495.479 249.125 495.651 249.47C495.824 249.901 495.651 250.418 495.306 250.59C493.065 251.71 490.737 252.831 488.409 253.865C488.323 253.951 488.151 254.037 488.064 254.037ZM501.6 247.229C501.255 247.229 500.997 247.057 500.824 246.799C500.566 246.368 500.738 245.851 501.169 245.592C503.411 244.386 505.566 243.093 507.721 241.887C508.153 241.628 508.67 241.801 508.928 242.145C509.187 242.576 509.015 243.093 508.67 243.352C506.514 244.644 504.273 245.937 502.031 247.143C501.945 247.143 501.773 247.229 501.6 247.229ZM514.619 239.388C514.36 239.388 514.101 239.215 513.929 238.957C513.67 238.526 513.756 238.009 514.188 237.75C516.343 236.372 518.412 234.907 520.395 233.528C520.826 233.269 521.343 233.356 521.602 233.7C521.861 234.131 521.774 234.648 521.43 234.907C519.36 236.372 517.291 237.837 515.136 239.215C514.963 239.388 514.791 239.388 514.619 239.388ZM527.034 230.598C526.775 230.598 526.516 230.512 526.344 230.253C526.085 229.909 526.085 229.305 526.516 229.047C528.499 227.496 530.482 225.859 532.379 224.307C532.724 223.963 533.327 224.049 533.586 224.394C533.931 224.738 533.845 225.342 533.5 225.6C531.603 227.237 529.62 228.875 527.551 230.426C527.378 230.598 527.206 230.598 527.034 230.598ZM538.5 220.774C538.242 220.774 538.069 220.688 537.897 220.516C537.552 220.171 537.552 219.654 537.897 219.309C539.707 217.586 541.518 215.776 543.242 213.967C543.587 213.622 544.104 213.622 544.449 213.967C544.794 214.311 544.794 214.828 544.449 215.173C542.725 216.983 540.914 218.792 539.018 220.602C538.931 220.688 538.759 220.774 538.5 220.774ZM548.932 209.744C548.76 209.744 548.501 209.658 548.415 209.572C548.07 209.227 547.984 208.71 548.329 208.366C549.967 206.47 551.519 204.488 553.071 202.506C553.329 202.161 553.933 202.075 554.278 202.333C554.622 202.592 554.709 203.195 554.45 203.54C552.898 205.522 551.346 207.59 549.708 209.486C549.45 209.658 549.191 209.744 548.932 209.744Z" fill="#C65F97"></path><path d="M558.071 197.68C557.899 197.68 557.726 197.594 557.554 197.508C557.123 197.249 557.037 196.732 557.295 196.301C557.985 195.267 558.675 194.147 559.365 193.027C559.623 192.596 560.141 192.51 560.572 192.768C561.003 193.027 561.089 193.544 560.83 193.975C560.14 195.095 559.451 196.215 558.761 197.249C558.589 197.508 558.33 197.68 558.071 197.68Z" fill="#C65F97"></path><path d="M164.326 188.977L161.136 187.77L156.481 186.047C156.826 183.375 156.998 177.602 154.843 170.708C151.825 161.057 147.945 142.96 152.687 138.135C154.929 135.894 157.343 132.706 159.843 130.638C155.964 152.698 162.516 181.566 164.068 187.684C164.24 188.546 164.326 188.977 164.326 188.977Z" fill="#5AA024"></path><path d="M283.562 485.928C281.751 488.771 279.768 492.218 280.803 495.493C281.579 498.164 284.251 499.974 285.027 502.645C285.89 505.747 284.251 509.108 285.114 512.21C285.717 514.279 287.441 515.83 289.338 516.691C291.235 517.467 293.304 517.639 295.373 517.812C295.718 517.812 296.149 517.898 296.408 517.639C296.666 517.467 296.839 517.208 297.011 516.95C298.391 514.537 298.736 511.521 298.822 508.677C298.822 506.781 298.736 504.8 298.046 502.99C297.184 500.836 295.546 499.198 294.597 497.044C293.477 494.545 293.476 491.615 292.528 489.116C291.666 486.789 289.769 484.807 287.441 484.549C285.027 484.204 285.027 484.721 283.562 485.928Z" fill="#FFADAE"></path><path d="M300.46 386.915C300.46 386.915 299.339 436.12 293.821 479.465L280.027 480.068C280.027 480.068 269.164 404.236 270.802 389.414C272.44 374.593 300.46 386.915 300.46 386.915Z" fill="#13623A"></path><path d="M280.889 478.431C283.476 478.775 287.959 479.12 292.787 478.431C293.908 478.258 294.942 479.12 294.856 480.24C294.856 482.739 294.511 486.789 292.787 488.771C290.201 491.701 282.269 490.323 280.889 488.944C279.941 487.996 279.251 483.429 278.82 480.499C278.648 479.292 279.682 478.258 280.889 478.431Z" fill="#407C13"></path><path d="M352.879 495.838C352.965 497.82 351.241 499.371 350.551 501.266C350.292 502.128 350.206 503.076 350.206 503.938C350.292 505.834 350.81 507.729 352.017 509.194C353.31 510.745 355.207 511.693 357.189 512.297C359.172 512.9 361.155 513.244 363.052 513.848C365.725 514.796 368.139 516.433 370.812 517.639C373.484 518.846 376.502 519.535 379.174 518.501C379.605 518.329 380.037 518.07 380.295 517.725C380.468 517.467 380.554 517.036 380.64 516.691C380.726 516.088 380.899 515.485 380.985 514.882C381.157 514.192 381.244 513.503 381.157 512.9C380.812 511.262 379.088 510.487 377.623 509.797C376.071 509.022 374.519 508.246 373.139 507.04C370.294 504.627 368.656 501.094 365.811 498.681C362.362 495.665 357.276 494.545 352.965 495.924L352.879 495.838Z" fill="#FFADAE"></path><path d="M315.548 394.24H300.029C293.822 394.24 288.821 389.242 288.821 383.038V376.919H332.877C332.877 386.485 325.118 394.24 315.548 394.24Z" fill="#ACA4A8"></path><path d="M377.709 403.891C372.795 433.449 369.26 463.178 367.104 492.994C367.018 494.2 366.932 495.493 366.242 496.527C364.863 498.509 361.932 498.595 359.517 497.906C357.19 497.302 354.776 496.182 352.448 496.699C353.913 483.084 353.655 469.21 351.672 455.681C351.068 451.803 350.379 447.839 349.689 443.962C348.654 438.533 347.62 433.018 347.016 427.503C346.24 421.298 346.068 415.094 346.24 408.803C346.327 405.356 346.93 401.651 345.551 398.376C343.999 394.585 340.033 392.43 336.929 390.018C335.636 389.07 334.343 388.122 333.049 387.174C331.411 386.054 329.687 384.933 327.876 384.072C323.738 382.09 318.91 380.539 314.513 379.246C309.685 377.867 304.685 377.178 299.77 377.609C298.822 377.609 297.874 377.609 297.011 377.522C291.494 377.178 286.235 375.627 281.751 370.973C281.062 370.542 280.372 370.198 279.768 369.681C277.268 367.871 275.63 365.544 275.975 362.528C276.147 360.719 277.096 358.995 278.217 357.444C285.545 347.19 298.563 343.226 310.978 340.468V340.296C311.065 340.296 311.151 340.382 311.237 340.382C311.668 340.296 312.013 340.21 312.444 340.124C312.444 340.382 312.358 340.554 312.272 340.813C326.238 346.328 340.119 352.36 353.741 358.823C363.311 363.39 373.657 368.991 377.623 378.901C380.554 386.829 379.088 395.619 377.709 403.891Z" fill="#1E6B44"></path><path d="M352.879 251.883L451.078 251.624C453.924 251.624 455.217 253.692 454.096 256.278L424.179 321.855L315.807 322.2L345.723 256.622C346.758 253.951 350.034 251.883 352.879 251.883Z" fill="#D3D3D3"></path><path d="M356.672 256.795L442.457 256.45C445.388 256.45 446.854 258.518 445.56 261.103L419.868 314.53L323.307 314.875L349.085 261.448C350.293 258.863 353.741 256.795 356.672 256.795Z" fill="#D1E0F2"></path><path d="M430.128 258.949L367.191 259.035C365.898 259.035 364.604 259.552 364.001 260.759L338.395 314.53L405.643 315.134L431.249 261.362C431.766 260.155 431.335 258.949 430.128 258.949Z" fill="white"></path><path d="M380.813 275.925C378.83 280.406 373.312 284.025 368.656 284.025C363.914 284.111 361.759 280.492 363.742 276.097C365.725 271.616 371.243 267.997 375.898 267.997C380.64 267.911 382.796 271.53 380.813 275.925Z" fill="#C65F97"></path><path d="M394.866 271.53H391.159C390.986 271.53 390.814 271.358 390.9 271.185C390.986 271.013 391.245 270.841 391.417 270.841H395.124C395.297 270.841 395.469 271.013 395.383 271.185C395.297 271.358 395.038 271.53 394.866 271.53Z" fill="#1E6B44"></path><path d="M414.781 271.358L397.107 271.53C396.935 271.53 396.762 271.358 396.849 271.185C396.935 271.013 397.193 270.841 397.366 270.841L415.04 270.668C415.212 270.668 415.385 270.841 415.299 271.013C415.212 271.185 414.954 271.358 414.781 271.358Z" fill="#1E6B44"></path><path d="M406.505 276.442L388.831 276.614C388.658 276.614 388.486 276.442 388.572 276.27C388.658 276.097 388.917 275.925 389.09 275.925L406.764 275.753C406.936 275.753 407.109 275.925 407.022 276.097C406.936 276.27 406.677 276.442 406.505 276.442Z" fill="#1E6B44"></path><path d="M401.677 289.885L359.517 290.316C359.345 290.316 359.173 290.143 359.259 289.971C359.345 289.799 359.604 289.626 359.776 289.626L401.935 289.196C402.108 289.196 402.28 289.368 402.194 289.54C402.108 289.713 401.849 289.885 401.677 289.885Z" fill="#1E6B44"></path><path d="M409.005 289.885L404.349 289.971C404.177 289.971 404.005 289.799 404.091 289.626C404.177 289.454 404.436 289.282 404.608 289.282L409.264 289.196C409.436 289.196 409.609 289.368 409.522 289.54C409.436 289.713 409.264 289.799 409.005 289.885Z" fill="#1E6B44"></path><path d="M370.726 295.314L357.19 295.486C357.017 295.486 356.845 295.314 356.931 295.142C357.017 294.969 357.276 294.797 357.448 294.797L370.984 294.625C371.157 294.625 371.329 294.797 371.243 294.969C371.157 295.142 370.898 295.314 370.726 295.314Z" fill="#1E6B44"></path><path d="M398.832 294.969L374.778 295.228C374.605 295.228 374.433 295.055 374.519 294.883C374.605 294.711 374.864 294.538 375.036 294.538L399.09 294.28C399.263 294.28 399.435 294.452 399.349 294.624C399.349 294.883 399.09 294.969 398.832 294.969Z" fill="#1E6B44"></path><path d="M381.847 300.226L354.862 300.484C354.689 300.484 354.517 300.312 354.603 300.139C354.689 299.967 354.948 299.795 355.12 299.795L382.106 299.536C382.278 299.536 382.45 299.708 382.364 299.881C382.278 300.053 382.019 300.226 381.847 300.226Z" fill="#1E6B44"></path><path d="M298.391 309.791H413.057C419.006 309.791 423.834 314.616 423.834 320.562V321.51H298.391V309.791Z" fill="#ACA4A8"></path><path d="M341.843 215.001C341.24 215.001 340.723 214.915 340.205 214.742C338.567 214.139 337.274 212.588 336.757 210.52C336.24 208.538 336.412 206.211 337.274 203.971C338.05 201.73 339.429 199.835 341.154 198.628C342.964 197.336 344.861 196.991 346.499 197.594C348.137 198.197 349.43 199.748 349.948 201.817C350.465 203.798 350.293 206.125 349.43 208.366C348.654 210.606 347.275 212.502 345.551 213.708C344.344 214.57 343.051 215.001 341.843 215.001ZM344.861 199.059C343.999 199.059 343.051 199.404 342.188 200.007C340.809 201.041 339.688 202.592 338.912 204.488C338.222 206.384 338.05 208.366 338.481 210.003C338.826 211.554 339.688 212.588 340.809 213.019C341.93 213.45 343.223 213.191 344.516 212.243C345.896 211.209 347.016 209.658 347.792 207.762C348.482 205.867 348.655 203.885 348.223 202.247C347.879 200.696 347.016 199.662 345.896 199.231C345.551 199.059 345.206 199.059 344.861 199.059Z" fill="#1E6B44"></path><path d="M320.117 223.101C320.117 223.101 313.91 236.199 320.117 246.454L289.597 239.388C289.597 239.388 298.132 229.823 297.357 221.378C296.667 213.019 320.117 223.101 320.117 223.101Z" fill="#FFADAE"></path><path d="M340.227 209.229C343.81 194.279 334.59 179.257 319.633 175.675C304.677 172.093 289.647 181.309 286.063 196.258C282.48 211.207 291.7 226.23 306.656 229.812C321.613 233.393 336.643 224.178 340.227 209.229Z" fill="#FFADAE"></path><path d="M159.757 517.725H73.1104V517.036C73.1104 508.16 80.2662 501.008 89.1464 501.008H143.721C152.601 501.008 159.757 508.16 159.757 517.036V517.725Z" fill="#AAAAAA"></path><path d="M378.744 321.424H405.212C405.212 321.424 404.608 316.34 392.969 312.548C381.33 308.843 378.744 321.424 378.744 321.424Z" fill="#284016"></path><path d="M375.898 309.015C375.898 309.015 378.916 309.188 383.485 308.671C383.916 308.584 384.348 308.584 384.779 308.498C390.9 306.516 396.935 307.378 400.556 312.462C401.073 313.065 401.504 313.755 401.849 314.358C402.625 315.564 404.091 317.546 404.091 318.925C400.211 319.528 396.504 317.891 392.624 317.546C389.607 317.288 386.417 317.46 383.572 318.839C381.071 320.045 375.985 319.528 373.312 319.614C373.312 319.701 371.157 309.101 375.898 309.015Z" fill="#FFADAE"></path><path d="M313.824 228.53C319.6 231.632 325.98 232.063 332.446 232.322C333.308 232.322 333.308 231.029 332.446 231.029C326.239 230.771 320.031 230.426 314.427 227.41C313.824 227.065 313.134 228.185 313.824 228.53Z" fill="white"></path><path d="M689.291 100.133V193.372C689.291 193.975 688.774 194.492 688.17 194.492H511.342C510.739 194.492 510.222 193.975 510.222 193.372V100.133C510.222 99.5295 510.739 99.0125 511.342 99.0125H688.17C688.774 99.0125 689.291 99.5295 689.291 100.133Z" fill="#CFCFCF"></path><path d="M677.393 124.864V138.738C677.393 140.375 676.1 141.754 674.376 141.754H659.202V121.934H674.376C676.1 121.848 677.393 123.227 677.393 124.864Z" fill="#ECF3FF"></path><path d="M677.048 174.844H572.297C571.348 174.844 570.572 174.069 570.572 173.121V161.66C570.572 160.712 571.348 159.937 572.297 159.937H677.048C677.997 159.937 678.773 160.712 678.773 161.66V173.121C678.773 174.069 677.997 174.844 677.048 174.844Z" fill="#ECF3FF"></path><path d="M562.986 153.129C558.761 160.798 550.657 165.969 541.346 165.969C532.034 165.969 523.93 160.798 519.706 153.129H562.986Z" fill="#ECF3FF"></path><path d="M639.803 233.959C644.851 233.959 648.942 229.869 648.942 224.824C648.942 219.78 644.851 215.69 639.803 215.69C634.756 215.69 630.665 219.78 630.665 224.824C630.665 229.869 634.756 233.959 639.803 233.959Z" fill="#1E6B44"></path><path d="M405.212 48.7737C405.212 51.0142 403.401 52.8239 401.16 52.8239C398.918 52.8239 397.107 51.0142 397.107 48.7737C397.107 46.5333 398.918 44.7236 401.16 44.7236C403.401 44.7236 405.212 46.5333 405.212 48.7737Z" fill="#79C142"></path><path d="M498.841 163.901C495.393 163.901 492.634 161.143 492.634 157.696C492.634 154.249 495.393 151.492 498.841 151.492C502.29 151.492 505.049 154.249 505.049 157.696C504.963 161.143 502.204 163.901 498.841 163.901ZM498.841 152.181C495.738 152.181 493.237 154.68 493.237 157.782C493.237 160.885 495.738 163.384 498.841 163.384C501.945 163.384 504.445 160.885 504.445 157.782C504.359 154.68 501.859 152.181 498.841 152.181Z" fill="#1E6B44"></path><path d="M697.568 74.7978C689.118 74.7978 682.221 67.904 682.221 59.4591C682.221 51.0142 689.118 44.1204 697.568 44.1204C706.017 44.1204 712.914 51.0142 712.914 59.4591C713 67.904 706.103 74.7978 697.568 74.7978ZM697.568 45.5853C689.981 45.5853 683.773 51.7897 683.773 59.3729C683.773 66.9561 689.981 73.1605 697.568 73.1605C705.154 73.1605 711.362 66.9561 711.362 59.3729C711.448 51.7897 705.241 45.5853 697.568 45.5853Z" fill="#79C142"></path><path d="M705.878 61.9293C707.252 57.323 704.63 52.4755 700.021 51.1022C695.412 49.7289 690.562 52.3498 689.188 56.9561C687.815 61.5625 690.437 66.4099 695.045 67.7832C699.654 69.1565 704.504 66.5356 705.878 61.9293Z" fill="#C65F97"></path><path d="M659.202 99.0125V151.061C659.202 152.181 658.34 153.129 657.133 153.129H510.222V100.133C510.222 99.5295 510.739 99.0125 511.342 99.0125H659.202Z" fill="#C2C2C2"></path><path d="M584.108 124.864V138.738C584.108 140.375 585.488 141.754 587.126 141.754H659.288V151.147C659.288 152.267 658.426 153.215 657.219 153.215H562.985C564.882 149.682 566.003 145.632 566.003 141.409C566.003 127.794 554.967 116.764 541.345 116.764C527.723 116.764 516.688 127.794 516.688 141.409C516.688 145.718 517.809 149.682 519.705 153.215H510.222V100.219C510.222 99.6157 510.739 99.0986 511.342 99.0986H659.202V121.934H587.039C585.401 121.848 584.108 123.227 584.108 124.864Z" fill="#A2A2A2"></path><path d="M650.321 146.752H432.887C431.766 146.752 430.817 145.804 430.817 144.684V61.4412C430.817 60.3209 431.766 59.373 432.887 59.373H650.321C651.442 59.373 652.391 60.3209 652.391 61.4412V144.684C652.304 145.804 651.442 146.752 650.321 146.752Z" fill="#F1F1F1"></path><path d="M530.224 336.935H139.238V321.51H530.224V336.935ZM140.962 335.212H528.5V323.234H140.962V335.212Z" fill="#D3D3D3"></path><path d="M630.837 96.341H519.274C518.24 96.341 517.292 95.4792 517.292 94.359V78.5032C517.292 77.4691 518.154 76.5212 519.274 76.5212H630.923C631.958 76.5212 632.906 77.383 632.906 78.5032V94.4451C632.82 95.4792 631.958 96.341 630.837 96.341Z" fill="white"></path><path d="M630.406 486.617L626.612 499.543L621.353 517.295H595.489L588.419 495.148L585.919 487.479L585.66 486.617H630.406Z" fill="#AAAAAA"></path><path d="M632.647 129.517H502.462C501.428 129.517 500.565 128.656 500.565 127.622V116.419C500.565 115.385 501.428 114.523 502.462 114.523H632.647C633.682 114.523 634.544 115.385 634.544 116.419V127.622C634.544 128.656 633.682 129.517 632.647 129.517Z" fill="white"></path><path d="M495.996 95.0485C495.996 98.2369 495.392 101.167 494.358 103.924C494.272 104.097 494.185 104.355 494.099 104.527C493.151 106.854 491.771 109.008 490.22 110.904C489.271 112.024 488.237 113.059 487.116 114.006C482.805 117.54 477.373 119.694 471.425 119.694C468.407 119.694 465.562 119.177 462.976 118.229C461.424 117.626 459.958 116.936 458.492 116.075C451.423 111.766 446.767 103.924 446.767 95.0485C446.767 86.345 451.25 78.6756 458.148 74.2808C459.182 73.5915 460.303 72.9882 461.51 72.4712C461.682 72.385 461.769 72.385 461.941 72.2989C462.027 72.2127 462.2 72.2127 462.286 72.1265C462.889 71.868 463.493 71.6957 464.096 71.4371C464.183 71.4371 464.269 71.351 464.269 71.351C464.269 71.351 464.269 71.351 464.355 71.351C464.527 71.2648 464.786 71.2648 464.958 71.1786C465.045 71.1786 465.131 71.0925 465.217 71.0925C465.39 71.0063 465.648 71.0063 465.821 70.9201C466.165 70.8339 466.51 70.7478 466.855 70.7478C467.028 70.6616 467.286 70.6616 467.545 70.6616C467.804 70.6616 467.976 70.5754 468.235 70.5754C468.666 70.4892 469.097 70.4892 469.614 70.4031C469.873 70.4031 470.131 70.4031 470.39 70.3169C470.735 70.3169 471.08 70.3169 471.425 70.3169C471.856 70.3169 472.287 70.3169 472.718 70.3169C473.149 70.3169 473.58 70.4031 474.011 70.4031C474.356 70.4031 474.787 70.4892 475.132 70.5754C475.218 70.5754 475.304 70.5754 475.391 70.6616C475.649 70.6616 475.908 70.7478 476.253 70.8339C477.201 71.0063 478.063 71.2648 478.925 71.5233C479.27 71.6095 479.529 71.6957 479.874 71.868C479.874 71.868 479.96 71.868 480.046 71.9542C480.305 72.0403 480.563 72.1265 480.822 72.2127C480.995 72.2989 481.081 72.2989 481.253 72.385C481.426 72.4712 481.684 72.5574 481.857 72.6436C482.029 72.7297 482.288 72.8159 482.46 72.9021C482.977 73.1606 483.495 73.4191 483.926 73.6776C484.184 73.85 484.357 73.9361 484.616 74.1085C485.133 74.367 485.564 74.7117 485.995 75.0564C486.167 75.2287 486.34 75.3149 486.512 75.4873C486.599 75.5734 486.685 75.5734 486.685 75.6596C486.857 75.832 487.03 76.0043 487.202 76.0905C487.461 76.349 487.806 76.6075 488.064 76.866C488.237 77.0384 488.409 77.2107 488.668 77.3831C488.84 77.5554 489.013 77.7277 489.185 77.9001C489.357 78.0724 489.444 78.2448 489.616 78.4171C489.789 78.5895 490.047 78.848 490.22 79.1065C490.392 79.2789 490.564 79.5374 490.737 79.7097C490.909 79.8821 491.082 80.1406 491.254 80.3991C491.599 80.83 491.944 81.347 492.203 81.864C492.375 82.1226 492.461 82.2949 492.634 82.5534C492.806 82.8119 492.892 83.0705 493.065 83.329C493.151 83.4151 493.151 83.5013 493.237 83.5875C493.323 83.7598 493.41 84.0184 493.582 84.1907C493.582 84.2769 493.668 84.2769 493.668 84.363C493.841 84.6216 493.927 84.9663 494.099 85.2248C494.185 85.3109 494.185 85.3971 494.272 85.5695C494.358 85.828 494.53 86.1727 494.617 86.5174C494.789 86.8621 494.875 87.2929 495.048 87.6376C495.134 87.9823 495.306 88.4132 495.392 88.7579C495.479 89.1025 495.565 89.4472 495.651 89.7919C495.737 89.9643 495.737 90.1366 495.737 90.309C495.824 90.4813 495.824 90.6537 495.824 90.9122C495.824 90.9983 495.824 91.0845 495.824 91.1707V91.2569C495.91 91.6877 495.91 92.1186 495.996 92.5495C495.996 92.9803 496.082 93.325 496.082 93.7559C495.996 94.1867 495.996 94.6176 495.996 95.0485Z" fill="white"></path><path d="M693.86 520.656C692.912 520.656 692.136 519.88 692.136 518.932C692.136 517.984 692.912 517.208 693.86 517.208H704.637C705.585 517.208 706.361 517.984 706.361 518.932C706.361 519.88 705.585 520.656 704.637 520.656H693.86Z" fill="#284016"></path><path d="M571.693 520.655C570.745 520.655 569.969 519.88 569.969 518.932C569.969 517.984 570.745 517.208 571.693 517.208L683.256 517.122C684.204 517.122 684.98 517.898 684.98 518.846C684.98 519.793 684.204 520.569 683.256 520.569L571.693 520.655Z" fill="#284016"></path><path d="M1.7243 521C0.775937 521 0 520.224 0 519.276C0 518.329 0.775937 517.553 1.7243 517.553L389.434 517.294C390.383 517.294 391.159 518.07 391.159 519.018C391.159 519.966 390.383 520.741 389.434 520.741L1.7243 521Z" fill="#284016"></path><path d="M529.706 516.26C529.362 516.26 529.017 516.088 528.93 515.743L458.406 337.28C458.234 336.849 458.406 336.332 458.924 336.16C459.355 335.987 459.872 336.16 460.045 336.677L530.569 515.14C530.741 515.571 530.569 516.088 530.051 516.26C529.879 516.26 529.793 516.26 529.706 516.26Z" fill="#D3D3D3"></path><path d="M548.157 518.587C547.639 518.587 547.122 518.242 546.95 517.812L475.563 337.107C475.305 336.418 475.65 335.729 476.253 335.47C476.943 335.212 477.633 335.556 477.891 336.16L549.277 516.864C549.536 517.553 549.191 518.242 548.588 518.501C548.502 518.587 548.329 518.587 548.157 518.587Z" fill="#D3D3D3"></path><path d="M529.275 322.372H491.686V336.073H529.275V322.372Z" fill="#D3D3D3"></path><path d="M164.671 516.261C164.585 516.261 164.499 516.261 164.326 516.174C163.895 516.002 163.636 515.485 163.809 515.054L234.333 336.591C234.505 336.16 235.023 335.901 235.454 336.074C235.885 336.246 236.143 336.763 235.971 337.194L165.447 515.657C165.361 516.088 165.016 516.261 164.671 516.261Z" fill="#D3D3D3"></path><path d="M146.221 518.587C146.049 518.587 145.876 518.587 145.704 518.501C145.014 518.242 144.755 517.467 145.014 516.864L216.4 336.16C216.659 335.47 217.435 335.212 218.038 335.47C218.728 335.729 218.987 336.504 218.728 337.107L147.428 517.812C147.169 518.329 146.738 518.587 146.221 518.587Z" fill="#D3D3D3"></path><path d="M415.816 520.742C414.868 520.742 414.092 519.966 414.092 519.018C414.092 518.07 414.868 517.295 415.816 517.295L551.346 517.208C552.295 517.208 553.071 517.984 553.071 518.932C553.071 519.88 552.295 520.655 551.346 520.655L415.816 520.742Z" fill="#284016"></path><path d="M609.024 283.077C609.024 283.077 617.387 284.37 617.904 264.464C617.904 263.947 617.473 263.602 617.042 263.602L611.093 264.119C611.093 264.119 619.456 255.674 611.352 228.185L607.386 231.546C607.214 231.718 606.955 231.546 607.041 231.287L609.542 223.273C609.542 223.273 605.576 214.742 598.592 209.141L609.024 283.077Z" fill="#407C13"></path><path d="M633.596 399.755C633.596 399.755 624.802 367.009 663.685 344.346L633.596 399.755Z" fill="#3A3A3A"></path><path d="M608.852 283.163C608.852 283.163 598.334 241.284 598.506 209.227C598.506 209.227 604.11 220.602 606.783 239.905C606.783 240.077 607.041 240.163 607.128 239.991L609.714 236.372C609.8 236.286 609.973 236.286 609.973 236.458C610.835 240.766 617.904 282.043 608.852 283.163Z" fill="#3A3A3A"></path><path d="M612.732 486.531C612.473 486.531 612.214 486.358 612.214 486.014C608.507 425.09 596.006 392.603 586.091 376.144C575.4 358.306 565.486 354.859 565.399 354.773C565.141 354.687 564.968 354.428 565.055 354.083C565.141 353.825 565.4 353.653 565.744 353.739C566.175 353.911 576.004 357.358 586.867 375.368C596.868 392.086 609.542 424.745 613.249 486.014C613.335 486.272 613.077 486.531 612.732 486.531C612.818 486.531 612.818 486.531 612.732 486.531Z" fill="#3A3A3A"></path><path d="M606.266 486.531C606.007 486.531 605.748 486.273 605.748 486.014C604.714 416.817 592.73 368.216 592.558 367.699C592.471 367.44 592.644 367.182 592.902 367.096C593.161 367.009 593.42 367.182 593.506 367.44C593.592 367.957 605.662 416.731 606.697 486.014C606.783 486.273 606.524 486.531 606.266 486.531Z" fill="#3A3A3A"></path><path d="M616.956 488.254C616.611 488.254 616.439 487.996 616.439 487.737C618.853 430.26 632.992 398.635 633.078 398.29C633.165 398.032 633.51 397.945 633.768 398.032C634.027 398.118 634.113 398.462 634.027 398.721C633.854 399.066 619.888 430.519 617.474 487.737C617.474 488.082 617.215 488.254 616.956 488.254Z" fill="#3A3A3A"></path><path d="M609.111 488.254C608.766 488.254 608.593 487.996 608.593 487.737C613.163 395.188 622.991 387.432 623.422 387.174C623.681 387.002 623.94 387.088 624.112 387.346C624.284 387.605 624.198 387.863 624.026 388.036C623.595 388.38 614.111 396.825 609.628 487.824C609.628 488.082 609.369 488.254 609.111 488.254Z" fill="#3A3A3A"></path><path d="M604.541 488.254C604.541 488.254 604.455 488.254 604.541 488.254C604.196 488.168 604.024 487.91 604.024 487.651C612.128 428.278 608.68 283.767 608.593 282.302C608.593 282.043 608.852 281.785 609.111 281.785C609.369 281.785 609.628 282.043 609.628 282.302C609.628 283.767 613.163 428.364 605.059 487.824C604.972 488.082 604.8 488.254 604.541 488.254Z" fill="#3A3A3A"></path><path d="M599.627 488.255C599.368 488.255 599.11 487.996 599.11 487.738C600.317 419.575 615.922 375.972 628.854 351.498C642.821 324.871 656.788 314.272 656.96 314.186C657.219 314.013 657.478 314.1 657.65 314.272C657.822 314.53 657.736 314.789 657.564 314.961C657.391 315.047 643.683 325.561 629.716 352.016C616.87 376.402 601.351 419.833 600.144 487.738C600.144 488.082 599.972 488.255 599.627 488.255Z" fill="#3A3A3A"></path><path d="M612.732 488.254C612.473 488.254 612.301 488.082 612.214 487.91C603.679 454.906 615.835 352.532 615.922 351.498C615.922 351.24 616.18 350.981 616.525 351.067C616.784 351.067 617.042 351.326 616.956 351.671C616.87 352.705 604.714 454.906 613.249 487.737C613.335 487.996 613.163 488.254 612.904 488.341C612.818 488.254 612.818 488.254 612.732 488.254Z" fill="#3A3A3A"></path><path d="M565.658 354.859C566.175 354.514 576.607 344.174 551.691 328.232C551.433 328.059 551.088 328.318 551.174 328.663L552.036 331.42C552.295 332.196 551.26 332.799 550.743 332.196C549.45 330.731 547.553 328.232 545.397 323.837C542.035 316.943 536.086 314.616 533.586 313.927C533.069 313.755 532.638 314.272 532.724 314.789L533.672 318.063C533.758 318.322 533.414 318.408 533.327 318.236L528.585 312.634C528.413 312.462 528.154 312.29 527.896 312.204C525.74 311.773 515.05 309.618 499.617 309.36L565.658 354.859Z" fill="#407C13"></path><path d="M565.658 354.859C565.658 354.859 538.845 344.518 499.445 309.36C499.445 309.36 510.222 309.188 530.913 327.801C531.517 328.318 532.552 327.887 532.552 327.111V324.785C532.552 324.612 532.724 324.526 532.896 324.612C536 326.422 561.175 341.588 565.658 354.859Z" fill="#3A3A3A"></path><path d="M592.644 368.216C592.644 368.216 607.386 370.198 598.161 332.282C598.161 332.282 591.609 312.979 590.316 313.582C589.022 314.272 592.644 368.216 592.644 368.216Z" fill="#407C13"></path><path d="M592.644 368.216C592.644 368.216 585.919 338.142 583.505 306.258C583.505 306.258 608.335 347.276 592.644 368.216Z" fill="#3A3A3A"></path><path d="M616.87 352.015C616.87 352.015 590.575 347.276 637.131 317.288C683.601 287.213 616.87 352.015 616.87 352.015Z" fill="#407C13"></path><path d="M624.026 388.036C624.026 388.036 607.386 383.038 626.354 370.715L627.388 378.212L624.026 388.036Z" fill="#3A3A3A"></path><path d="M624.026 388.036C624.026 388.036 610.404 381.831 629.285 370.112L631.44 372.524C631.871 373.041 632.647 372.783 632.734 372.094L633.337 366.923C633.337 366.923 644.89 360.374 658.253 357.875C658.598 357.789 658.857 358.306 658.512 358.478L624.026 388.036Z" fill="#407C13"></path><path d="M656.874 315.22C656.874 315.22 643.079 302.294 680.928 279.975C681.876 279.372 683.17 280.061 683.17 281.268V287.731L686.101 285.662C686.101 285.662 681.79 277.218 712.914 269.893L656.874 315.22Z" fill="#407C13"></path><path d="M656.96 315.133C656.96 315.133 676.358 283.077 712.914 269.807C713 269.807 671.444 311.687 656.96 315.133Z" fill="#3A3A3A"></path><path d="M335.55 80.7439C313.996 80.7439 296.581 100.391 296.581 124.606H374.519C374.433 100.391 357.017 80.7439 335.55 80.7439Z" fill="#AAAAAA"></path><path d="M380.899 117.022H291.666V119.004H380.899V117.022Z" fill="white"></path><path d="M381.589 119.608H292.356V121.59H381.589V119.608Z" fill="white"></path><path d="M380.037 120.211H290.89C290.373 120.211 290.028 119.866 290.028 119.349C290.028 118.832 290.373 118.488 290.89 118.488H379.95C380.468 118.488 380.812 118.832 380.812 119.349C380.812 119.866 380.468 120.211 380.037 120.211Z" fill="#8C8C8C"></path><path d="M144.669 509.022H116.391C116.391 506.782 118.201 504.972 120.443 504.972H140.531C142.859 504.972 144.669 506.782 144.669 509.022Z" fill="white"></path><path d="M631.095 491.787H584.97C584.453 491.787 583.936 491.357 583.936 490.753V487.479C583.936 486.531 584.711 485.755 585.66 485.755H630.406C631.354 485.755 632.13 486.531 632.13 487.479V490.753C632.13 491.27 631.613 491.787 631.095 491.787Z" fill="#AAAAAA"></path><path d="M186.139 188.977C186.139 189.666 186.139 190.355 186.053 190.959C185.966 192.079 185.708 193.113 185.449 194.147C185.19 195.095 184.846 196.043 184.414 196.904C181.397 203.54 174.672 208.193 166.913 208.193C157.774 208.193 150.187 201.816 148.118 193.371C147.945 192.768 147.859 192.251 147.773 191.648L147.687 191.131C147.687 191.045 147.687 191.045 147.687 190.959C147.601 190.269 147.601 189.58 147.601 188.977H186.139Z" fill="#AAAAAA"></path><path d="M174.931 206.297H158.809V208.107H174.931V206.297Z" fill="#8C8C8C"></path><path d="M124.408 211.295C123.46 211.295 122.684 210.52 122.684 209.572C122.684 208.624 123.46 207.848 124.408 207.848L213.296 207.762C214.245 207.762 215.021 208.538 215.021 209.486C215.021 210.434 214.245 211.209 213.296 211.209L124.408 211.295Z" fill="#3A3A3A"></path><path d="M186.915 190.959H146.739C146.394 190.959 146.049 190.7 146.049 190.269V186.909C146.049 186.564 146.307 186.219 146.739 186.219H186.915C187.26 186.219 187.605 186.478 187.605 186.909V190.269C187.605 190.7 187.26 190.959 186.915 190.959Z" fill="#AAAAAA"></path><path d="M256.145 479.465C255.456 479.465 254.852 478.862 254.852 478.172L254.335 399.41C254.335 398.721 254.938 398.118 255.628 398.118C256.318 398.118 256.921 398.721 256.921 399.41L257.439 478.172C257.439 478.862 256.835 479.465 256.145 479.465Z" fill="#ACA4A8"></path><path d="M261.663 479.465C261.405 479.465 261.232 479.293 261.232 479.034L260.37 395.188C260.37 394.929 260.543 394.757 260.801 394.757C261.06 394.757 261.232 394.929 261.232 395.188L262.094 479.034C262.094 479.206 261.922 479.465 261.663 479.465Z" fill="#ACA4A8"></path><path d="M306.667 511.952C306.323 511.952 305.978 511.779 305.892 511.435C298.563 492.477 279.941 479.809 259.68 479.809C239.851 479.809 222.004 491.529 214.158 509.797C213.986 510.228 213.469 510.401 213.038 510.228C212.607 510.056 212.434 509.539 212.607 509.108C220.711 490.322 239.247 478.086 259.766 478.086C280.803 478.086 300.029 491.27 307.616 510.832C307.788 511.262 307.53 511.779 307.099 511.952C306.84 511.952 306.754 511.952 306.667 511.952Z" fill="#ACA4A8"></path><path d="M300.115 511.521C299.943 511.521 299.857 511.435 299.857 511.349C293.477 494.89 277.354 483.86 259.68 483.86C242.437 483.86 226.919 494.114 220.108 509.884C220.021 510.056 219.849 510.142 219.676 510.056C219.504 509.97 219.418 509.798 219.504 509.625C226.401 493.597 242.179 483.17 259.68 483.17C277.613 483.17 293.994 494.373 300.46 511.09C300.546 511.262 300.46 511.435 300.288 511.521C300.201 511.521 300.201 511.521 300.115 511.521Z" fill="#ACA4A8"></path><path d="M215.71 513.072C215.71 515.485 213.728 517.467 211.313 517.467C208.899 517.467 206.917 515.485 206.917 513.072C206.917 510.659 208.899 508.677 211.313 508.677C213.814 508.677 215.71 510.659 215.71 513.072Z" fill="#ACA4A8"></path><path d="M374.864 310.48L374.519 317.202C374.692 322.975 367.708 320.993 367.708 320.993C359.776 319.873 351.672 319.615 343.74 318.667C338.309 318.063 332.619 316.771 328.653 312.721C324.169 308.067 322.704 301.174 321.152 295.228C320.376 292.212 319.945 288.679 318.652 285.921C318.393 286.955 318.307 288.075 318.221 289.196C318.221 289.626 318.134 290.057 318.134 290.488C317.876 293.418 317.962 296.262 317.531 299.192C317.1 302.208 316.582 305.138 316.324 308.154C315.807 315.564 317.531 322.717 319.169 329.869C319.859 332.799 320.204 335.901 320.721 338.917C320.807 339.434 321.152 343.14 321.583 343.398C303.392 333.919 281.234 352.532 281.234 352.532L275.544 348.224L247.179 326.681C247.179 308.671 259.422 263.171 267.698 250.59C275.889 238.009 286.148 237.664 291.408 238.095C296.753 238.526 304.771 242.749 304.771 242.749C316.151 243.007 323.825 246.54 323.825 246.54C337.964 254.64 340.809 274.977 340.809 274.977C341.068 277.131 341.24 279.286 341.499 281.354C341.93 284.715 343.568 287.989 344.516 291.35C345.465 294.883 348.31 296.951 351.5 298.588C354.345 300.139 357.448 301.26 360.207 302.897C361.414 303.673 362.794 305.051 364.173 305.31C365.639 305.568 367.105 304.793 368.484 305.224C369.863 305.655 371.157 306.43 372.364 307.206C372.881 307.55 373.485 307.895 373.916 308.412C374.519 308.929 374.95 309.705 374.864 310.48Z" fill="#E0DED6"></path><path d="M312.099 512.986C312.099 515.399 310.116 517.381 307.702 517.381C305.288 517.381 303.305 515.399 303.305 512.986C303.305 510.573 305.288 508.591 307.702 508.591C310.116 508.591 312.099 510.573 312.099 512.986Z" fill="#ACA4A8"></path><path d="M254.163 399.497C261.781 399.497 267.957 396.68 267.957 393.206C267.957 389.732 261.781 386.915 254.163 386.915C246.544 386.915 240.368 389.732 240.368 393.206C240.368 396.68 246.544 399.497 254.163 399.497Z" fill="#ACA4A8"></path><path d="M437.628 300.57C437.628 312.117 439.094 321.079 458.579 321.51C476.77 321.855 479.529 312.117 479.529 300.57H437.628Z" fill="#284016"></path><path d="M321.669 343.312C303.478 333.833 281.32 352.446 281.32 352.446L275.63 348.138C274.768 343.226 275.803 336.59 286.493 333.833C304.426 329.352 303.564 320.907 309.771 311.514C315.979 302.121 312.358 279.372 312.358 279.372L314.772 281.181L317.445 283.68L318.221 289.196C318.221 289.626 318.134 290.057 318.134 290.488C317.876 293.418 317.962 296.262 317.531 299.192C317.1 302.208 316.582 305.137 316.324 308.154C315.806 315.564 317.531 322.717 319.169 329.869C319.859 332.799 320.203 335.901 320.721 338.917C320.893 339.348 321.238 343.053 321.669 343.312Z" fill="#F5F4F0"></path><path d="M469.959 317.805H447.026V321.51H469.959V317.805Z" fill="#284016"></path><path d="M479.443 297.64H437.628V301.087H479.443V297.64Z" fill="#284016"></path><path d="M480.219 298.933H436.68V300.57H480.219V298.933Z" fill="white"></path><path d="M482.116 300.57H435.042V301.174H482.116V300.57Z" fill="#284016"></path><path d="M476.77 302.035V304.103H482.805C483.409 304.103 483.667 304.793 483.236 305.224L474.442 314.013L475.908 315.478C475.994 315.392 476.167 315.22 476.253 315.133C476.598 314.789 476.943 314.444 477.287 314.099C477.805 313.582 478.236 313.151 478.753 312.634C479.357 312.031 479.874 311.514 480.477 310.911C481.081 310.308 481.684 309.705 482.288 309.101C482.892 308.498 483.495 307.895 484.098 307.292C484.616 306.775 485.133 306.258 485.65 305.741C485.995 305.396 486.426 304.965 486.771 304.62C486.944 304.448 487.202 304.276 487.375 304.017C487.547 303.759 487.72 303.414 487.806 303.069C487.892 302.725 487.892 302.466 487.633 302.208C487.461 302.035 487.202 301.863 486.944 301.863H476.77V302.035Z" fill="#284016"></path><path d="M295.115 170.363C295.201 178.291 289.511 185.961 281.924 188.201C281.148 188.46 280.372 188.632 279.596 188.977C279.423 189.063 279.165 189.235 278.992 189.408C278.906 189.494 278.906 189.494 278.82 189.58C278.216 190.097 277.872 190.786 277.44 191.476C272.526 200.782 273.561 211.985 273.992 222.412C274.078 225.255 274.164 228.099 274.164 230.943C274.164 232.666 274.164 234.304 274.164 236.027C273.992 257.312 271.578 278.596 269.164 299.709C268.302 306.947 267.526 314.099 265.715 321.166C260.973 317.029 256.232 312.807 251.576 308.498C250.714 307.723 249.852 306.947 249.076 306.172C247.955 305.137 246.834 304.103 245.713 303.069C245.11 302.552 244.592 302.035 243.989 301.518C241.316 299.019 238.557 296.52 235.885 294.021C243.903 274.029 245.627 252.141 247.265 230.684C248.214 218.362 249.162 205.953 248.558 193.544C248.386 189.666 247.955 185.702 248.386 181.824C249.593 171.053 257.525 161.143 268.043 158.644C278.561 156.145 291.235 160.281 295.115 170.363Z" fill="#5FA728"></path><path d="M243.903 301.518C245.368 294.021 252.179 258.69 254.249 243.438C252.783 255.33 247.869 293.676 245.627 303.069C245.024 302.638 244.506 302.121 243.903 301.518Z" fill="white"></path><path d="M254.249 243.438C254.421 242.231 254.507 241.283 254.593 240.68C254.507 241.456 254.421 242.404 254.249 243.438Z" fill="white"></path><path d="M295.201 170.105C288.648 152.87 264.939 150.63 252.352 162.436C245.196 169.157 243.127 179.412 243.989 188.891C245.11 201.127 251.404 212.416 250.369 224.911C250.283 225.772 251.576 225.772 251.662 224.911C253.214 206.039 238.557 187.77 248.645 169.416C257.87 152.612 286.579 151.233 293.994 170.536C294.252 171.139 295.546 170.88 295.201 170.105Z" fill="#79C142"></path><path d="M332.446 198.887C343.74 185.185 324.169 165.624 310.202 175.62C309.512 176.137 310.202 177.257 310.892 176.74C323.566 167.606 342.016 185.358 331.584 198.025C330.98 198.628 331.928 199.576 332.446 198.887Z" fill="#79C142"></path><path d="M282.786 194.319C274.078 208.538 283.993 223.187 299.512 225.428C300.288 225.514 300.719 224.308 299.857 224.221C285.286 222.153 275.63 208.624 283.907 195.009C284.338 194.319 283.217 193.63 282.786 194.319Z" fill="#79C142"></path><path d="M274.682 256.105C273.992 275.494 272.182 294.797 269.078 313.927C268.905 314.703 270.199 315.134 270.285 314.272C273.389 295.055 275.285 275.58 275.889 256.105C275.975 255.244 274.682 255.244 274.682 256.105Z" fill="#C65F97"></path><path d="M303.047 342.536C315.548 350.723 330.291 354.342 343.654 360.977C349.862 364.08 356.414 367.354 361.759 371.835C364.863 374.42 367.708 377.695 368.915 381.659C370.295 386.14 369.433 390.879 368.743 395.446C364.001 427.847 358.311 460.335 360.639 493.252C360.725 494.114 362.018 494.114 361.932 493.252C360.725 475.242 361.759 457.232 363.829 439.308C364.863 430.346 366.156 421.471 367.45 412.595C368.657 404.408 370.812 395.877 370.898 387.519C371.071 373.817 357.707 366.751 347.017 361.236C332.877 353.911 317.014 350.12 303.65 341.416C302.961 340.985 302.357 342.106 303.047 342.536Z" fill="#CFF6B1"></path><path d="M279.337 189.58C279.165 189.58 278.906 189.494 278.734 189.494C272.268 188.977 270.802 201.644 270.716 205.608C270.63 210.606 271.664 215.604 272.44 220.602C272.957 224.049 273.561 227.496 274.078 230.857C274.078 232.58 274.078 234.217 274.078 235.941C272.44 226.979 270.802 217.931 270.112 208.969C269.681 203.626 270.63 187.167 279.423 188.89C279.423 188.89 279.423 188.89 279.51 188.89C279.941 189.063 279.768 189.666 279.337 189.58Z" fill="white"></path><path d="M256.663 264.033L251.49 308.412C250.628 307.637 249.766 306.861 248.99 306.085L256.663 264.033Z" fill="white"></path><path d="M303.736 174.155C292.701 178.808 284.424 196.991 284.424 196.991C284.424 196.991 284.252 197.594 283.993 196.56C283.735 195.526 283.131 193.63 280.631 192.424C278.217 191.217 278.734 189.494 278.734 189.494C278.734 189.494 279.165 187.943 280.286 187.253C281.407 186.564 289.252 177.343 291.839 172.259C294.425 167.175 296.581 168.726 297.27 169.243C297.357 169.329 297.357 169.329 297.443 169.502C297.788 170.363 297.27 172.776 300.547 172.862C300.633 172.862 300.719 172.862 300.805 172.862C304.254 173.035 303.736 174.155 303.736 174.155Z" fill="#D9D0BE"></path><path d="M285.545 194.147C285.027 195.267 284.596 196.387 284.251 197.594C284.079 198.197 283.907 198.8 283.82 199.403C283.562 200.351 283.389 201.385 283.217 202.333C282.441 206.642 282.872 211.468 284.51 215.69C284.855 216.552 285.2 217.327 285.631 218.103C286.062 219.051 286.579 219.826 287.183 220.602C294.252 229.909 315.548 231.718 319.686 218.361C320.031 217.241 320.117 216.035 320.031 214.915C319.858 212.933 318.91 211.123 318.565 209.227C318.134 207.331 318.306 205.091 319.772 203.798C322.014 201.902 325.462 203.367 328.307 202.506C331.066 201.644 332.532 198.714 333.136 195.957C334.86 187.856 330.463 178.981 323.221 174.93C315.979 170.88 306.409 171.656 299.598 176.395C293.477 180.618 289.252 187.856 285.545 194.147Z" fill="#5FA728"></path><path d="M300.891 172.949C296.149 176.826 289.424 184.927 288.303 186.822C286.838 189.235 280.717 192.424 287.7 184.237C293.132 177.86 296.321 171.828 297.528 169.502C297.873 170.363 297.356 172.776 300.632 172.862C300.718 172.862 300.805 172.862 300.891 172.949Z" fill="white"></path><path d="M348.568 207.935C348.396 207.849 327.704 200.61 320.376 204.574C319.169 205.263 318.479 206.125 318.221 207.331L316.583 206.901C317.014 205.177 317.962 203.885 319.6 203.023C327.532 198.714 348.31 205.953 349.172 206.297L348.568 207.935Z" fill="#1E6B44"></path><path d="M340.291 277.993C342.016 284.198 343.05 291.953 347.361 296.951C352.017 302.294 365.208 301.346 365.294 309.877C365.294 310.739 366.587 310.739 366.587 309.877C366.501 303.759 360.552 301.777 355.638 300.226C350.292 298.588 347.102 295.572 345.206 290.316C343.654 286.179 342.705 281.785 341.585 277.562C341.24 276.873 340.033 277.131 340.291 277.993Z" fill="white"></path><path d="M365.38 305.741C368.657 305.224 371.933 306.516 373.657 309.446C375.295 312.204 374.692 315.134 373.571 317.891C373.226 318.667 374.519 319.011 374.778 318.236C376.243 314.616 376.502 310.739 373.916 307.55C371.76 304.879 368.312 303.931 365.036 304.534C364.26 304.62 364.604 305.913 365.38 305.741Z" fill="white"></path><path d="M319.773 289.971C318.997 284.801 316.669 279.975 316.496 274.805C316.496 273.943 315.203 273.943 315.203 274.805C315.462 280.147 317.79 285.059 318.566 290.316C318.652 291.178 319.859 290.747 319.773 289.971Z" fill="white"></path><path d="M283.476 352.36C295.718 344.174 310.116 337.194 324.169 345.725C325.204 346.414 326.239 344.691 325.118 344.087C310.461 335.212 295.287 342.105 282.441 350.723C281.407 351.412 282.441 353.136 283.476 352.36Z" fill="white"></path><path d="M300.632 394.24L233.471 392.689C223.47 392.43 214.245 386.743 209.848 377.781C205.106 368.302 202.52 354.687 211.227 338.4C215.797 329.869 224.504 324.354 234.161 323.751C245.886 323.061 262.439 325.474 275.716 340.727C298.908 367.354 300.632 394.24 300.632 394.24Z" fill="#D3D3D3"></path><path d="M317.444 281.957C315.375 280.751 313.306 279.63 311.064 278.683C310.289 278.338 309.685 279.458 310.375 279.803C312.53 280.751 314.686 281.871 316.755 283.077C317.531 283.508 318.134 282.388 317.444 281.957Z" fill="white"></path><path d="M481.771 88.4994L477.805 110.732L465.476 112.024C465.476 112.024 471.339 101.77 465.476 91.5154C465.476 91.5154 456.079 90.0505 457.975 74.367C459.182 73.5915 460.389 72.9021 461.769 72.3851C462.459 72.0404 463.235 71.7819 463.924 71.6095C464.011 71.6095 464.097 71.5233 464.097 71.5233C465.821 71.0063 467.545 70.6616 469.356 70.5754C475.563 77.1246 481.771 88.4994 481.771 88.4994Z" fill="#79C142"></path><path d="M288.649 237.147C299.857 241.025 310.203 244.817 322.273 244.817C323.135 244.817 323.135 243.524 322.273 243.524C310.375 243.524 300.115 239.819 288.994 235.941C288.132 235.682 287.787 236.889 288.649 237.147Z" fill="white"></path><path d="M483.495 78.1586V87.4653C483.495 93.9282 478.322 99.0986 471.856 99.0986C465.39 99.0986 460.217 93.9282 460.217 87.4653V78.1586C460.217 76.0043 460.734 74.0223 461.769 72.3851C462.458 72.0404 463.234 71.7818 463.924 71.6095C464.01 71.6095 464.096 71.5233 464.096 71.5233C466.338 70.8339 468.752 70.4893 471.252 70.4893C475.218 70.4893 478.926 71.4372 482.288 73.0744C483.064 74.5394 483.495 76.2628 483.495 78.1586Z" fill="#FFE4E4"></path><path d="M490.22 110.904C489.272 112.024 488.237 113.059 487.116 114.006C482.805 117.54 477.374 119.694 471.425 119.694C468.407 119.694 465.562 119.177 462.976 118.229C461.424 117.626 459.958 116.936 458.493 116.075C459.269 114.782 460.131 113.576 461.165 112.455C461.51 112.111 461.855 111.766 462.2 111.507C465.045 109.095 468.666 107.716 472.632 107.716H480.478C484.099 107.716 487.461 108.922 490.22 110.904Z" fill="#FFE4E4"></path><path d="M481.857 93.6697H474.787V112.628H481.857V93.6697Z" fill="#FFE4E4"></path><path d="M495.996 95.0485C495.996 98.2369 495.393 101.167 494.358 103.924C494.272 104.097 494.186 104.355 494.1 104.527C493.151 106.854 491.772 109.008 490.22 110.904C489.272 112.024 488.237 113.059 487.116 114.006C486.34 113.576 485.651 113.059 484.961 112.628C483.15 111.249 481.426 109.698 480.305 107.716C479.874 106.94 479.529 105.992 479.357 105.044C478.495 100.391 481.771 95.824 481.167 91.1707C481.081 90.4813 480.823 89.7919 480.478 89.1887C480.133 88.6717 479.616 88.327 479.184 87.9823C476.512 86.0865 473.753 84.4492 471.166 82.4673C468.58 80.4853 466.338 77.9001 465.131 74.7979C464.7 73.7638 464.442 72.5574 464.355 71.4372C464.355 71.4372 464.356 71.4372 464.442 71.4372C464.614 71.351 464.873 71.351 465.045 71.2648C465.131 71.2648 465.218 71.1786 465.304 71.1786C465.476 71.0925 465.735 71.0925 465.907 71.0063C466.252 70.9201 466.597 70.8339 466.942 70.8339C467.114 70.7478 467.373 70.7478 467.632 70.7478C467.89 70.7478 468.063 70.6616 468.321 70.6616C468.752 70.5754 469.184 70.5754 469.701 70.4893C469.959 70.4893 470.218 70.4892 470.477 70.4031C470.822 70.4031 471.167 70.4031 471.511 70.4031C471.942 70.4031 472.374 70.4031 472.805 70.4031C473.236 70.4031 473.667 70.4893 474.098 70.4893C474.443 70.4893 474.874 70.5754 475.219 70.6616C475.305 70.6616 475.391 70.6616 475.477 70.7478C475.736 70.7478 475.995 70.8339 476.339 70.9201C477.288 71.0925 478.15 71.351 479.012 71.6095C479.357 71.6957 479.616 71.7818 479.96 71.9542C479.96 71.9542 480.047 71.9542 480.133 72.0404C480.392 72.1265 480.65 72.2127 480.909 72.2989C481.081 72.3851 481.167 72.385 481.34 72.4712C481.512 72.5574 481.771 72.6436 481.943 72.7297C482.116 72.8159 482.374 72.9021 482.547 72.9883C483.064 73.2468 483.581 73.5053 484.013 73.7638C484.271 73.9362 484.444 74.0223 484.702 74.1947C485.22 74.4532 485.651 74.7979 486.082 75.1426C486.254 75.3149 486.427 75.4011 486.599 75.5734C486.685 75.6596 486.771 75.6596 486.771 75.7458C486.944 75.9181 487.116 76.0905 487.289 76.1766C487.547 76.4352 487.892 76.6937 488.151 76.9522C488.323 77.1246 488.496 77.2969 488.754 77.4692C488.927 77.6416 489.099 77.8139 489.272 77.9863C489.444 78.1586 489.53 78.331 489.703 78.5033C489.875 78.6757 490.134 78.9342 490.306 79.1927C490.479 79.365 490.651 79.6236 490.824 79.7959C490.996 79.9682 491.168 80.2268 491.341 80.4853C491.686 80.9161 492.031 81.4332 492.289 81.9502C492.462 82.2087 492.548 82.3811 492.72 82.6396C492.893 82.8981 492.979 83.1566 493.151 83.4152C493.238 83.5013 493.238 83.5875 493.324 83.6737C493.41 83.846 493.496 84.1045 493.669 84.2769C493.669 84.3631 493.755 84.3631 493.755 84.4492C493.927 84.7077 494.013 85.0524 494.186 85.311C494.272 85.3971 494.272 85.4833 494.358 85.6556C494.445 85.9142 494.617 86.2589 494.703 86.6035C494.876 86.9482 494.962 87.3791 495.134 87.7238C495.22 88.0685 495.393 88.4993 495.479 88.844C495.565 89.1887 495.652 89.5334 495.738 89.8781C495.824 90.0505 495.824 90.2228 495.824 90.3951C495.91 90.5675 495.91 90.7398 495.91 90.9983C495.91 91.0845 495.91 91.1707 495.91 91.2569V91.343C495.996 91.7739 495.996 92.2048 496.083 92.6356C496.083 93.0665 496.169 93.4112 496.169 93.842C495.996 94.1867 495.996 94.6176 495.996 95.0485Z" fill="#79C142"></path><path d="M520.913 96.5135C523.068 92.291 526.172 88.7579 530.224 86.3451C532.638 84.8802 536.345 82.295 535.655 88.7579C535.483 90.3091 534.879 90.9984 535.224 92.6357C535.311 92.9804 535.742 93.1528 536 93.0666C540.742 92.2049 544.622 90.3091 548.674 87.8962C550.484 86.8621 550.915 86.1728 552.812 87.4654C554.881 88.7579 553.33 88.4994 554.537 89.5335C555.399 90.3091 555.226 90.7399 556.519 90.9123C557.468 91.0846 558.416 90.0505 559.106 90.1367C559.709 90.2229 560.313 91.0846 561.089 91.3431C565.055 92.8081 569.193 87.5515 572.814 90.3091C573.159 90.5676 573.676 90.3091 573.762 89.9644C575.142 84.9664 577.987 81.0886 582.384 78.4172C582.039 78.2449 581.694 78.0725 581.436 77.9002C581.091 82.8982 580.832 87.8962 580.487 92.8942C580.401 93.756 581.694 93.756 581.78 92.8942C582.125 87.8962 582.384 82.8982 582.729 77.9002C582.729 77.3832 582.125 77.1246 581.78 77.3832C579.539 78.7619 577.556 80.3992 576.004 82.5535C574.883 84.1046 574.366 86.6036 573.159 87.8962C572.211 88.9303 571.952 88.2409 570.314 88.3271C567.555 88.4994 562.037 92.8081 560.227 88.8441C560.054 88.5856 559.623 88.4133 559.365 88.5856C555.744 91.0846 555.83 86.4313 553.674 85.3972C552.554 84.794 551.174 85.311 550.053 85.7419C546.432 87.293 543.587 89.792 539.708 90.9123C536.431 91.9463 536.431 91.3431 537.38 88.1547C537.552 87.5515 537.725 87.0345 537.811 86.3451C537.983 82.2088 534.535 82.812 531.862 84.1046C526.603 86.6036 522.551 90.8261 519.878 95.9965C519.447 96.5997 520.568 97.2029 520.913 96.5135Z" fill="#C65F97"></path><path d="M602.472 90.9985C602.903 90.4814 604.196 88.4133 604.8 88.241C606.265 87.8101 605.231 88.1548 605.921 88.8442C606.869 89.7059 607.214 90.6538 608.507 91.257C610.921 92.3772 613.508 91.5155 615.146 89.5335C615.663 88.9303 614.801 87.9824 614.197 88.5856C612.473 90.5676 609.542 90.9985 607.645 89.0165C607.041 88.4133 606.869 86.9484 606.007 86.5175C604.196 85.4834 602.213 89.0165 601.437 89.9644C601.006 90.74 601.955 91.6879 602.472 90.9985Z" fill="#C65F97"></path><path d="M494.358 103.924C494.272 104.097 494.186 104.355 494.099 104.528C492.203 103.149 490.565 101.598 489.271 99.6157C486.426 95.4794 486.685 89.792 483.581 86.0004C479.96 81.6918 473.149 82.0365 468.666 78.6757C466.166 76.7799 464.614 74.2809 464.269 71.3511C464.441 71.2649 464.7 71.2649 464.873 71.1787C465.562 77.7278 472.115 80.1407 477.805 81.9503C480.478 82.812 482.892 83.7599 484.53 86.1728C486.771 89.4473 486.857 93.6698 488.582 97.2029C489.875 99.9604 491.944 102.201 494.358 103.924Z" fill="white"></path><path d="M495.91 92.5494C495.824 92.4632 495.738 92.377 495.651 92.2908C493.151 89.2748 493.237 85.2247 490.823 82.2086C488.409 79.2788 484.185 78.6756 481.771 75.7457C480.822 74.6255 480.219 73.3329 479.874 71.9541C480.133 72.0403 480.391 72.1264 480.65 72.2126C482.116 77.2106 487.892 77.6415 491.427 81.7778C492.893 83.5012 493.065 85.6556 493.841 87.7237C494.272 89.0163 494.962 90.2227 495.738 91.2568C495.824 91.7738 495.824 92.1185 495.91 92.5494Z" fill="white"></path><path d="M462.114 72.385C459.182 77.8139 461.596 84.1906 460.045 89.9642C459.958 90.3951 459.269 90.2227 459.441 89.7919C460.907 84.0183 458.665 77.9 461.338 72.4712C461.51 72.385 461.596 72.385 461.769 72.2988C461.855 72.2126 462.028 72.2126 462.114 72.1265C462.2 72.2126 462.2 72.2988 462.114 72.385Z" fill="white"></path><path d="M666.271 53.2547H541.259C540.742 53.2547 540.397 52.91 540.397 52.393C540.397 51.8759 540.742 51.5312 541.259 51.5312H666.271C666.788 51.5312 667.133 51.8759 667.133 52.393C667.133 52.8238 666.788 53.2547 666.271 53.2547Z" fill="#F6F6F6"></path><path d="M523.671 53.2547H457.544C457.027 53.2547 456.682 52.91 456.682 52.393C456.682 51.8759 457.027 51.5312 457.544 51.5312H523.671C524.189 51.5312 524.533 51.8759 524.533 52.393C524.533 52.8238 524.102 53.2547 523.671 53.2547Z" fill="#F6F6F6"></path><path d="M668.341 202.678H613.939C613.422 202.678 613.077 202.333 613.077 201.816C613.077 201.299 613.422 200.955 613.939 200.955H668.341C668.858 200.955 669.203 201.299 669.203 201.816C669.203 202.333 668.772 202.678 668.341 202.678Z" fill="#F6F6F6"></path><path d="M293.304 169.76C293.39 164.073 294.339 157.437 290.631 152.526C290.114 151.836 288.993 152.526 289.511 153.215C293.045 157.868 292.097 164.245 292.011 169.76C292.011 170.622 293.304 170.622 293.304 169.76Z" fill="#79C142"></path><path d="M293.735 168.123C295.287 166.917 295.46 164.159 295.805 162.349C296.322 158.989 295.805 156.059 294.425 152.957C291.235 146.063 287.873 142.185 280.458 140.117C280.027 140.031 279.855 140.634 280.286 140.72C286.321 142.443 289.597 145.287 292.615 150.802C294.08 153.474 295.374 156.231 295.46 159.333C295.46 161.401 295.287 166.227 293.477 167.606C293.046 167.864 293.391 168.381 293.735 168.123Z" fill="#79C142"></path><path d="M352.448 487.393C354.948 487.91 364.259 489.806 368.484 488.771C368.829 488.685 369.174 488.944 369.174 489.375L368.311 497.906C368.311 498.164 368.053 498.337 367.794 498.423C365.725 498.681 356.931 499.543 351.413 497.389C351.155 497.303 351.068 497.044 351.068 496.786L351.672 487.91C351.844 487.565 352.103 487.307 352.448 487.393Z" fill="#407C13"></path><path d="M351.155 409.923C349.172 421.815 352.448 435.775 349.603 444.048C348.568 438.619 347.534 433.104 346.93 427.589C346.154 421.384 345.982 415.18 346.154 408.889C346.24 405.442 346.844 401.737 345.465 398.462C343.913 394.671 339.947 392.517 336.843 390.104C335.55 389.156 334.257 388.208 332.963 387.26C336.929 387.432 341.326 387.432 345.723 386.829C358.397 385.192 353.827 394.068 351.155 409.923Z" fill="#13623A"></path><path d="M564.537 176.223C572.814 170.019 581.694 164.848 591.264 160.884C593.506 159.936 595.833 159.075 598.161 158.299C599.541 157.782 600.575 156.92 601.61 158.213C602.558 159.506 601.782 160.798 601.351 162.263C600.748 164.762 598.247 169.76 599.885 172.259C601.265 174.327 604.024 173.466 605.834 172.776C610.921 170.967 616.094 166.916 621.612 167.951C625.922 168.726 629.285 168.468 633.596 167.692C640.32 166.572 646.442 167.951 651.442 172.69C652.391 173.552 653.684 172.173 652.822 171.311C649.201 167.951 644.804 165.71 639.889 165.279C636.786 165.021 633.854 165.71 630.837 166.227C626.957 166.83 624.026 165.969 620.232 165.624C614.715 165.107 610.404 170.277 605.145 170.88C603.679 171.828 602.386 171.311 601.437 169.157C601.696 168.123 602.041 167.003 602.299 165.969C602.731 164.331 603.162 162.78 603.593 161.143C604.11 159.161 605.058 157.265 604.024 155.456C603.851 155.197 603.507 154.938 603.162 154.938C599.885 155.025 596.437 156.748 593.419 157.868C590.143 159.161 586.867 160.54 583.677 162.091C576.521 165.538 569.883 169.76 563.503 174.413C562.554 175.361 563.589 176.999 564.537 176.223Z" fill="#C65F97"></path><path d="M587.729 492.994L627.647 495.838L628.854 491.788H587.298L587.729 492.994Z" fill="#8C8C8C"></path><path d="M185.966 190.959C185.88 192.079 185.622 193.113 185.363 194.147L147.687 191.648L147.601 191.131V190.959H185.966Z" fill="#8C8C8C"></path><path d="M194.76 151.147C194.329 156.49 191.915 162.263 189.329 163.556C187.518 164.417 184.242 165.021 181.311 165.365C180.018 165.538 178.724 165.71 177.69 165.796C175.966 165.969 174.845 166.055 174.845 166.055L177.862 157.007V156.92C177.862 156.92 180.19 157.954 182.087 157.437C182.173 157.437 182.259 157.351 182.345 157.351C183.984 156.834 185.191 155.197 184.673 150.974C183.466 141.409 190.881 139.083 193.812 144.425C194.674 146.149 194.933 148.562 194.76 151.147Z" fill="#407C13"></path><path d="M164.93 159.592C165.102 165.969 159.671 168.812 154.325 168.985C152.946 164.159 151.48 157.868 150.791 152.095C151.222 151.836 151.739 151.664 152.17 151.578C152.86 151.406 153.636 151.406 154.412 151.406C155.188 151.406 155.877 151.492 156.653 151.664C160.016 152.526 162.602 154.249 164.068 157.351C164.413 158.127 164.671 158.816 164.93 159.592Z" fill="#5AA024"></path><path d="M163.033 157.61C163.292 165.193 155.532 167.778 149.497 166.916C147.773 166.916 146.911 165.193 146.221 164.676C145.704 164.245 145.273 163.728 144.842 163.211C143.635 161.574 143.031 159.678 143.462 157.524C144.324 154.077 146.911 150.63 150.359 149.768C151.049 149.596 151.825 149.596 152.601 149.596C153.377 149.596 154.067 149.682 154.843 149.854C158.205 150.716 160.791 152.439 162.171 155.542C162.516 156.059 162.774 156.834 163.033 157.61Z" fill="#407C13"></path><path d="M165.275 130.035C165.361 129.173 165.275 128.311 165.188 127.449C165.102 126.674 163.809 126.588 163.895 127.449C163.981 128.311 163.981 129.173 163.981 130.035C163.895 130.896 165.188 130.896 165.275 130.035Z" fill="#3A3A3A"></path><path d="M166.654 135.722C166.912 135.205 167.344 134.86 167.775 134.516C168.033 134.343 168.033 133.826 167.775 133.568C167.516 133.309 167.171 133.395 166.826 133.568C166.309 133.999 165.878 134.516 165.533 135.033C165.102 135.722 166.223 136.411 166.654 135.722Z" fill="#3A3A3A"></path><path d="M167.775 141.84C168.551 141.409 169.24 140.892 169.93 140.289C170.534 139.686 169.671 138.824 168.982 139.341C168.378 139.858 167.775 140.289 167.085 140.72C166.395 141.151 167.085 142.271 167.775 141.84Z" fill="#3A3A3A"></path><path d="M161.653 141.151C160.877 140.462 160.015 139.772 159.153 139.255C158.463 138.824 157.774 139.944 158.463 140.375C159.239 140.892 160.015 141.409 160.705 142.099C161.309 142.616 162.257 141.668 161.653 141.151Z" fill="#3A3A3A"></path><path d="M162.429 134.516C162.171 133.395 161.998 132.275 161.998 131.155C161.998 130.293 160.705 130.293 160.705 131.155C160.705 132.447 160.878 133.654 161.222 134.86C161.395 135.636 162.688 135.291 162.429 134.516Z" fill="#3A3A3A"></path><path d="M155.015 138.393C154.239 137.876 153.377 137.445 152.515 137.187C151.739 137.015 151.394 138.221 152.17 138.393C152.946 138.566 153.722 138.91 154.411 139.427C155.101 140.031 155.705 138.91 155.015 138.393Z" fill="#3A3A3A"></path><path d="M157.601 133.998C157.17 133.395 156.739 132.706 156.308 132.103C155.877 131.413 154.756 132.103 155.187 132.792C155.618 133.395 156.049 134.085 156.481 134.688C156.912 135.377 158.032 134.688 157.601 133.998Z" fill="#3A3A3A"></path><path d="M173.896 137.704C174.327 137.187 174.844 136.67 175.275 136.067C175.793 135.463 174.931 134.516 174.327 135.119C173.896 135.636 173.379 136.153 172.948 136.756C172.43 137.445 173.379 138.307 173.896 137.704Z" fill="#3A3A3A"></path><path d="M178.638 145.89C179.242 145.373 179.845 145.115 180.621 144.942C181.397 144.77 181.052 143.564 180.276 143.736C179.328 143.908 178.466 144.339 177.776 145.029C177.172 145.546 178.035 146.494 178.638 145.89Z" fill="#3A3A3A"></path><path d="M171.482 149.51C171.741 148.648 171.827 147.786 171.569 146.924C171.396 146.149 170.103 146.494 170.362 147.269C170.534 147.959 170.448 148.562 170.275 149.165C170.017 149.941 171.224 150.285 171.482 149.51Z" fill="#3A3A3A"></path><path d="M163.809 148.648C163.292 148.045 162.688 147.528 162.085 147.097C161.395 146.58 160.791 147.7 161.395 148.217C161.998 148.648 162.429 149.079 162.861 149.596C163.464 150.199 164.326 149.251 163.809 148.648Z" fill="#3A3A3A"></path><path d="M171.137 161.746C171.655 161.057 172.258 160.367 172.776 159.678C173.034 159.419 173.034 159.075 172.776 158.73C172.517 158.472 172.086 158.472 171.827 158.73C171.31 159.419 170.706 160.109 170.189 160.798C169.93 161.057 169.93 161.401 170.189 161.746C170.448 161.918 170.879 162.005 171.137 161.746Z" fill="#3A3A3A"></path><path d="M167.861 155.197C167.602 154.594 167.43 153.904 167.171 153.301C166.913 152.526 165.619 152.87 165.964 153.646C166.223 154.249 166.395 154.938 166.654 155.542C166.826 156.317 168.12 155.973 167.861 155.197Z" fill="#3A3A3A"></path><path d="M166.482 169.071C166.05 168.123 165.447 167.347 164.757 166.572C164.24 165.969 163.292 166.83 163.809 167.52C164.412 168.209 164.93 168.985 165.275 169.76C165.706 170.45 166.826 169.76 166.482 169.071Z" fill="#3A3A3A"></path><path d="M160.791 174.069C160.274 173.724 159.671 173.466 158.981 173.293C158.205 173.035 157.86 174.327 158.636 174.5C159.153 174.672 159.671 174.844 160.102 175.189C160.791 175.62 161.481 174.5 160.791 174.069Z" fill="#3A3A3A"></path><path d="M172.862 174.586C173.293 174.155 173.81 173.897 174.413 173.724C175.189 173.466 174.845 172.259 174.069 172.518C173.293 172.776 172.603 173.121 171.999 173.724C171.31 174.155 172.258 175.103 172.862 174.586Z" fill="#3A3A3A"></path><path d="M177.345 167.864C177.862 167.606 178.379 167.347 178.897 167.089C179.673 166.744 178.983 165.624 178.207 165.969C177.69 166.227 177.172 166.486 176.655 166.744C175.965 167.089 176.569 168.209 177.345 167.864Z" fill="#3A3A3A"></path><path d="M178.552 154.335C178.811 153.56 178.983 152.784 178.897 152.009C178.811 151.147 177.517 151.147 177.604 152.009C177.69 152.698 177.604 153.301 177.345 153.991C177.259 154.335 177.517 154.68 177.776 154.766C178.121 154.938 178.38 154.68 178.552 154.335Z" fill="#3A3A3A"></path><path d="M183.811 165.021C184.414 165.538 185.018 165.968 185.707 166.399C186.397 166.83 187.087 165.71 186.397 165.279C185.794 164.934 185.276 164.59 184.759 164.159C184.069 163.556 183.121 164.417 183.811 165.021Z" fill="#3A3A3A"></path><path d="M189.587 161.66C190.191 161.832 190.794 161.918 191.398 161.918C192.26 161.832 192.26 160.54 191.398 160.626C190.881 160.626 190.449 160.626 189.932 160.454C189.156 160.195 188.811 161.401 189.587 161.66Z" fill="#3A3A3A"></path><path d="M187.863 154.852C187.518 154.249 187.173 153.732 186.829 153.129C186.398 152.439 185.277 153.043 185.708 153.818C186.053 154.421 186.398 154.938 186.742 155.542C187.173 156.145 188.294 155.542 187.863 154.852Z" fill="#3A3A3A"></path><path d="M193.898 150.888C194.415 150.716 194.933 150.458 195.364 150.199C196.053 149.768 195.45 148.648 194.674 149.079C194.329 149.337 193.898 149.51 193.553 149.682C192.777 149.941 193.122 151.147 193.898 150.888Z" fill="#3A3A3A"></path><path d="M190.88 146.235C190.967 145.459 191.053 144.77 191.139 143.995C191.139 143.65 190.794 143.391 190.449 143.305C190.104 143.305 189.846 143.564 189.76 143.995C189.673 144.77 189.587 145.459 189.501 146.235C189.501 146.58 189.846 146.838 190.191 146.924C190.622 146.838 190.88 146.58 190.88 146.235Z" fill="#3A3A3A"></path><path d="M160.274 181.049C159.239 180.446 158.205 179.929 157.17 179.325C156.481 178.895 155.791 180.015 156.481 180.446C157.515 181.049 158.55 181.566 159.584 182.169C160.36 182.514 161.05 181.394 160.274 181.049Z" fill="#3A3A3A"></path><path d="M172.603 181.48C173.465 181.049 174.327 180.79 175.276 180.704C176.138 180.618 175.707 179.325 174.931 179.498C173.896 179.67 172.948 180.015 172 180.446C171.224 180.704 171.913 181.824 172.603 181.48Z" fill="#3A3A3A"></path><path d="M177.776 174.5C179.069 174.241 180.449 173.983 181.742 173.724C182.518 173.552 182.173 172.345 181.397 172.518C180.104 172.776 178.724 173.035 177.431 173.293C176.569 173.466 176.914 174.672 177.776 174.5Z" fill="#3A3A3A"></path><path d="M155.101 167.606C154.843 167.692 154.67 167.778 154.412 167.778C153.636 168.037 153.98 169.243 154.756 168.985C155.015 168.898 155.187 168.812 155.446 168.812C156.222 168.554 155.877 167.347 155.101 167.606Z" fill="#3A3A3A"></path><path d="M149.842 165.796C149.842 166.055 149.67 166.313 149.497 166.572C149.066 167.261 150.187 167.951 150.618 167.261C150.877 166.83 151.049 166.4 151.135 165.882C151.222 165.538 150.791 165.193 150.446 165.193C150.101 165.193 149.928 165.452 149.842 165.796Z" fill="#3A3A3A"></path><path d="M144.841 162.263C144.497 162.349 144.152 162.435 143.721 162.435C142.945 162.608 143.29 163.814 144.065 163.642C144.41 163.556 144.755 163.47 145.186 163.47C146.048 163.383 145.704 162.091 144.841 162.263Z" fill="#3A3A3A"></path><path d="M147.6 155.886C146.824 155.542 146.221 155.025 145.617 154.421C145.014 153.818 144.152 154.766 144.669 155.369C145.359 156.059 146.048 156.576 146.91 157.007C147.686 157.351 148.376 156.231 147.6 155.886Z" fill="#3A3A3A"></path><path d="M154.929 159.678C155.101 159.419 155.274 159.247 155.446 158.988C155.705 158.73 155.705 158.385 155.446 158.041C155.188 157.782 154.757 157.782 154.498 158.041C154.325 158.299 154.153 158.471 153.981 158.73C153.722 158.988 153.722 159.333 153.981 159.678C154.239 159.936 154.757 159.936 154.929 159.678Z" fill="#3A3A3A"></path><path d="M158.291 163.125C158.808 163.211 159.326 163.297 159.843 163.297C160.188 163.383 160.533 163.211 160.619 162.866C160.705 162.522 160.533 162.091 160.188 162.091C159.67 162.005 159.153 161.918 158.636 161.918C158.291 161.832 157.946 162.005 157.86 162.349C157.774 162.608 157.946 163.039 158.291 163.125Z" fill="#3A3A3A"></path><path d="M154.929 152.87C155.273 152.353 155.532 151.75 155.877 151.233C156.308 150.544 155.187 149.854 154.756 150.544C154.411 151.061 154.153 151.664 153.808 152.181C153.463 152.956 154.584 153.646 154.929 152.87Z" fill="#3A3A3A"></path><path d="M149.239 151.578C148.808 151.233 148.377 150.888 147.945 150.63C147.687 150.458 147.256 150.544 147.083 150.888C146.911 151.233 146.997 151.578 147.342 151.75C147.773 152.095 148.204 152.439 148.635 152.698C148.894 152.87 149.325 152.784 149.497 152.439C149.67 152.095 149.497 151.75 149.239 151.578Z" fill="#3A3A3A"></path><path d="M182.345 157.179C182.173 157.437 181.914 157.696 181.57 157.782C178.811 159.161 174.845 155.628 177 150.974C178.293 148.217 178.207 144.856 177.948 142.702C180.018 146.235 181.57 150.285 182.173 155.111C182.259 155.714 182.345 156.403 182.345 157.179Z" fill="#5AA024"></path><path d="M194.76 151.147C194.329 156.49 191.915 162.263 189.329 163.556C187.518 164.417 184.242 165.021 181.311 165.365C180.966 167.089 180.448 168.898 179.931 170.622C178.552 169.588 177.172 167.864 177.603 165.71C177.776 165.107 178.034 164.504 178.465 163.9C179.759 162.091 180.793 161.832 181.828 162.005C183.466 162.177 185.018 163.297 187.518 160.195C191.053 156.059 192.691 150.544 194.76 151.147Z" fill="#5AA024"></path><path d="M114.063 505.92C113.632 505.92 113.114 505.748 112.856 505.403C73.9726 464.902 43.1075 410.268 25.7783 351.498C8.01794 291.264 4.91419 230.34 16.7257 175.361C25.0023 136.67 41.6419 100.908 64.8338 72.0404C90.2673 40.3289 122.684 18.6995 158.464 9.30671C191.915 0.603269 231.315 2.0682 263.819 13.2707C281.751 19.4751 297.011 28.3509 309.168 39.5533C322.617 51.9622 331.929 67.0424 336.929 84.2769C337.188 85.2248 336.67 86.1727 335.722 86.4313C334.774 86.6898 333.825 86.1727 333.567 85.2248C321.928 44.6375 288.562 25.421 262.698 16.459C230.884 5.42894 192.26 3.964 159.412 12.5813C77.9385 33.9521 34.0549 111.077 20.0881 176.137C-3.44869 285.662 35.693 420.006 115.27 502.99C115.959 503.679 115.873 504.8 115.183 505.403C114.839 505.748 114.494 505.92 114.063 505.92Z" fill="#AAAAAA"></path><path d="M332.015 61.0966C331.67 61.0966 331.411 60.9242 331.239 60.6657C315.461 29.4712 281.493 8.53121 235.712 1.72357C235.281 1.6374 234.936 1.20654 235.023 0.775673C235.109 0.344809 235.54 0.000118457 235.971 0.0862912C282.269 6.98011 316.668 28.2648 332.791 59.8901C332.963 60.321 332.877 60.838 332.446 61.0104C332.273 61.0966 332.187 61.0966 332.015 61.0966Z" fill="#79C142"></path><path d="M126.219 501.611C125.96 501.611 125.788 501.525 125.615 501.353C86.56 460.679 56.6433 407.941 39.1416 348.827C38.9691 348.396 39.2278 347.879 39.7451 347.793C40.1762 347.621 40.6935 347.879 40.7797 348.396C58.2814 407.166 88.0256 459.731 126.909 500.146C127.254 500.491 127.254 501.008 126.909 501.353C126.65 501.525 126.478 501.611 126.219 501.611Z" fill="#79C142"></path></svg>